<?xml version="1.0" encoding="utf-8"?>
<!-- Generator: Adobe Illustrator 25.1.0, SVG Export Plug-In . SVG Version: 6.00 Build 0)  -->
<svg version="1.1" id="Layer_1" xmlns="http://www.w3.org/2000/svg" xmlns:xlink="http://www.w3.org/1999/xlink" x="0px" y="0px"
	 viewBox="0 0 1023 961.3" style="enable-background:new 0 0 1023 961.3;" xml:space="preserve">
<style type="text/css">
	.st0{fill:#FFFFFF;}
</style>
<path class="st0" d="M770.7,62c0,0-404,113.5-388.1,535.6c0,0-295-47.4-326.8-107.7C55.8,490,217,43.9,770.7,62z"/>
<path class="st0" d="M787.7,903.7c0,0,114.8-403.6-253.2-611.1c0,0,194.9-226.6,262.8-222.1C797.4,70.5,1093.1,441.4,787.7,903.7z"
	/>
<path class="st0" d="M48.9,505c0,0,294.4,299,656.4,81.3c0,0,100.9,281.3,63.5,338.2C768.8,924.5,300.4,998.8,48.9,505z"/>
</svg>
