<?xml version="1.0" encoding="utf-8"?>
<!-- Generator: Adobe Illustrator 25.1.0, SVG Export Plug-In . SVG Version: 6.00 Build 0)  -->
<svg version="1.1" id="Layer_1" xmlns="http://www.w3.org/2000/svg" xmlns:xlink="http://www.w3.org/1999/xlink" x="0px" y="0px"
	 viewBox="0 0 200 200" style="enable-background:new 0 0 200 200;" xml:space="preserve">
<style type="text/css">
	.st0{fill:#513FA5;}
	.st1{fill:#EBC83B;}
</style>
<path class="st0" d="M164.4,65.2l-8.8-10.6c-1.2-1.5-1.9-3.2-2.1-5.1l-1.3-13.7c-0.7-7.1-6.4-12.8-13.5-13.5L125,21
	c-1.9-0.2-3.6-0.9-5.1-2.1l-10.6-8.8c-5.5-4.6-13.5-4.6-19.1,0l-10.6,8.8c-1.5,1.2-3.2,1.9-5.1,2.1l-13.7,1.3
	C53.6,23,48,28.6,47.3,35.8L46,49.5c-0.2,1.9-0.9,3.6-2.1,5.1l-8.8,10.6c-4.6,5.5-4.6,13.5,0,19.1l8.8,10.6c1.2,1.5,1.9,3.2,2.1,5.1
	l1.3,13.7c0.7,7.1,6.4,12.8,13.5,13.5l8.4,0.8l-19.9,47.6c-0.5,1.3-0.3,2.8,0.6,3.8c0.9,1,2.4,1.5,3.7,1.1l17.3-4.9
	c0.1,0,0.1,0,0.2,0.1l8.7,15.7c0.6,1.2,1.8,1.9,3.2,1.9c0.1,0,0.1,0,0.2,0c1.4-0.1,2.6-0.9,3.2-2.2l21-50.3c0.7-0.4,1.4-0.9,2.1-1.4
	l10.6-8.8c1.3-1.1,3-1.8,4.7-2.1l19.1,45.5l-13.5-3.8c-2.6-0.7-5.2,0.4-6.5,2.7l-6.8,12.3l-8.9-21.4c-0.6-1.4-2.2-2.1-3.6-1.5
	c-1.4,0.6-2.1,2.2-1.5,3.6l10.5,25c0.5,1.3,1.8,2.1,3.2,2.2c0.1,0,0.1,0,0.2,0c1.3,0,2.5-0.7,3.2-1.9l8.7-15.7
	c0-0.1,0.1-0.1,0.2-0.1l17.3,4.9c1.4,0.4,2.8,0,3.7-1.1c0.9-1.1,1.2-2.5,0.6-3.8L130.4,128l8.4-0.8c7.1-0.7,12.8-6.4,13.5-13.5
	l1.3-13.7c0.2-1.9,0.9-3.6,2.1-5.1l8.8-10.6C169,78.8,169,70.7,164.4,65.2z M82.6,185.3l-6.8-12.3c-1.3-2.3-4-3.5-6.5-2.7l-13.5,3.8
	l19-45.5c1.7,0.2,3.3,0.9,4.7,2.1l10.6,8.8c2.8,2.3,6.1,3.4,9.5,3.4c0.2,0,0.4,0,0.7,0L82.6,185.3z M160.2,80.8l-8.8,10.6
	c-1.9,2.3-3.1,5.1-3.4,8.1l-1.3,13.7c-0.4,4.5-4,8.1-8.5,8.5l-12.1,1.2c0,0-0.1,0-0.1,0l-1.5,0.1c-3,0.3-5.8,1.4-8.1,3.4l-10.6,8.8
	c-3.5,2.9-8.5,2.9-12,0l-10.6-8.8c-2.3-1.9-5.1-3.1-8.1-3.4l-1.5-0.1c0,0-0.1,0-0.1,0l-12.1-1.2c-4.5-0.4-8.1-4-8.5-8.5l-1.3-13.7
	c-0.3-3-1.4-5.8-3.4-8.1l-8.8-10.6c-2.9-3.5-2.9-8.5,0-12l8.8-10.6c1.9-2.3,3.1-5.1,3.4-8.1l1.3-13.7c0.4-4.5,4-8.1,8.5-8.5L75,26.5
	c3-0.3,5.8-1.4,8.1-3.4l10.6-8.8c1.7-1.4,3.9-2.2,6-2.2c2.1,0,4.3,0.7,6,2.2l10.6,8.8c2.3,1.9,5.1,3.1,8.1,3.4l13.7,1.3
	c4.5,0.4,8.1,4,8.5,8.5l1.3,13.7c0.3,3,1.4,5.8,3.4,8.1l8.8,10.6C163,72.2,163,77.3,160.2,80.8z"/>
<path class="st1" d="M99.8,31.5c-1.8,0-3.7,0.1-5.5,0.4c-1.5,0.2-2.6,1.6-2.4,3.1c0.2,1.5,1.6,2.6,3.1,2.4c1.6-0.2,3.2-0.3,4.8-0.3
	c20.8,0,37.7,16.9,37.7,37.7s-16.9,37.7-37.7,37.7c-20.8,0-37.7-16.9-37.7-37.7c0-14.8,8.7-28.3,22.3-34.4c1.4-0.6,2-2.3,1.4-3.7
	c-0.6-1.4-2.3-2-3.7-1.4c-15.5,7-25.5,22.5-25.5,39.5c0,23.8,19.4,43.2,43.2,43.2S143,98.6,143,74.8C143,50.9,123.6,31.5,99.8,31.5z
	"/>
<path class="st1" d="M72.3,71.5c-3.3,3.3-3.3,8.7,0,12l12.1,12.1c1.6,1.6,3.7,2.5,6,2.5c2.3,0,4.4-0.9,6-2.5l26.4-26.4
	c3.3-3.3,3.3-8.7,0-12c-3.3-3.3-8.7-3.3-12,0L90.3,77.7l-6.1-6.1C80.9,68.2,75.6,68.2,72.3,71.5z M90.3,84.3c0.7,0,1.4-0.3,2-0.8
	l22.4-22.4c1.1-1.1,3-1.1,4.1,0c1.1,1.1,1.1,3,0,4.1L92.4,91.7c-0.6,0.6-1.3,0.9-2.1,0.9c-0.8,0-1.5-0.3-2.1-0.9L76.2,79.6
	c-1.1-1.1-1.1-3,0-4.1c0.6-0.6,1.3-0.9,2.1-0.9c0.7,0,1.5,0.3,2.1,0.9l8.1,8.1C88.9,84,89.6,84.3,90.3,84.3z"/>
</svg>
