<?xml version="1.0" encoding="utf-8"?>
<!-- Generator: Adobe Illustrator 25.1.0, SVG Export Plug-In . SVG Version: 6.00 Build 0)  -->
<svg version="1.1" id="Capa_1" xmlns="http://www.w3.org/2000/svg" xmlns:xlink="http://www.w3.org/1999/xlink" x="0px" y="0px"
	 viewBox="0 0 200 200" style="enable-background:new 0 0 200 200;" xml:space="preserve">
<style type="text/css">
	.st0{fill:#EBC83B;}
	.st1{fill:#513FA5;}
</style>
<path class="st0" d="M179.3,56.2c2.5-2.5,3.4-6.1,2.3-9.4c-1.1-3.4-3.9-5.7-7.4-6.3l-14.1-2c-1.4-0.2-2.7-1.1-3.3-2.4l-6.3-12.7
	c-1.6-3.2-4.7-5.1-8.2-5.1c-3.5,0-6.7,2-8.2,5.1l-6.3,12.7c-0.6,1.3-1.9,2.2-3.3,2.4l-14.1,2c-3.5,0.5-6.3,2.9-7.4,6.3
	c-1.1,3.4-0.2,7,2.3,9.4l10.2,9.9c1,1,1.5,2.5,1.3,3.9l-2.4,14c-0.6,3.5,0.8,6.9,3.7,9c1.6,1.2,3.5,1.8,5.4,1.8
	c1.5,0,2.9-0.4,4.3-1.1l12.6-6.6c1.3-0.7,2.8-0.7,4.1,0l12.6,6.6c3.1,1.6,6.8,1.4,9.7-0.7c2.9-2.1,4.3-5.5,3.7-9l-0.5-2.7
	c-0.2-1.3-1.5-2.2-2.8-2c-1.3,0.2-2.2,1.5-2,2.8l0.5,2.7c0.3,1.7-0.4,3.3-1.7,4.3c-1.4,1-3.1,1.1-4.6,0.3l-12.6-6.6
	c-2.7-1.4-5.9-1.4-8.6,0l-12.6,6.6c-1.5,0.8-3.2,0.7-4.6-0.3c-1.4-1-2-2.6-1.7-4.3l2.4-14c0.5-3-0.5-6-2.6-8.1l-10.2-9.9
	c-1.2-1.2-1.6-2.9-1.1-4.5c0.5-1.6,1.8-2.7,3.5-3l14.1-2c3-0.4,5.6-2.3,6.9-5l6.3-12.7c0.8-1.5,2.2-2.4,3.9-2.4
	c1.7,0,3.2,0.9,3.9,2.4l6.3,12.7c1.3,2.7,3.9,4.6,6.9,5l14.1,2c1.7,0.2,3,1.4,3.5,3c0.5,1.6,0.1,3.3-1.1,4.5l-10.2,9.9
	c-2.2,2.1-3.2,5.2-2.6,8.1l0.1,0.5c0.2,1.3,1.5,2.2,2.8,2c1.3-0.2,2.2-1.5,2-2.8l-0.1-0.5c-0.2-1.4,0.2-2.9,1.3-3.9L179.3,56.2z"/>
<path class="st1" d="M150.2,122.1c1.7-2,2.7-4.5,2.7-7.4c0-6.2-5.1-11.3-11.3-11.3l-36.6,0c0,0-0.4-1.2-0.7-1.7c0,0,0,0,0,0
	c-0.6-1.2-0.8-2.5-0.6-3.8c0.5-4.1,0.7-8.4,0.8-11.8c0.3-8.8-1.5-15.2-5.4-19.6c-3.9-4.4-9.5-7-15.4-7c0,0-0.1,0-0.1,0
	c-3.3,0-6,2.8-6,6.1v10.7c0,6.8-1.1,16.3-6.3,22.7c-5.6,6.9-10.4,6.8-18.3,6.7c-0.3,0-0.5,0-0.8,0v-2.9c0-4.8-3.9-8.7-8.7-8.7H26.6
	c-4.8,0-8.7,3.9-8.7,8.7V127c0,1.3,1.1,2.4,2.4,2.4c1.3,0,2.4-1.1,2.4-2.4v-24.2c0-2.1,1.7-3.9,3.9-3.9h16.8c2.1,0,3.9,1.7,3.9,3.9
	v70.3c0,2.1-1.7,3.9-3.9,3.9H26.6c-2.1,0-3.9-1.7-3.9-3.9V138c0-1.3-1.1-2.4-2.4-2.4S18,136.6,18,138v35.1c0,4.8,3.9,8.7,8.7,8.7
	h16.8c4.8,0,8.7-3.9,8.7-8.7v-3.6h3.3c1.6,0,3.1,0.5,4.4,1.5c0.3,0.3,0.7,0.6,1.1,1c3,2.6,8.6,7.3,16.6,7.3l59,0
	c6.2,0,11.3-5.1,11.3-11.3c0-2.7-0.9-5.2-2.5-7.1c4.4-1.5,7.6-5.7,7.6-10.7c0-2.8-1-5.4-2.7-7.4c4.1-1.7,6.9-5.7,6.9-10.4
	C157.1,127.8,154.2,123.8,150.2,122.1L150.2,122.1z M121.1,108.3h20.5c3.6,0,6.5,2.9,6.5,6.5c0,3.6-2.9,6.5-6.5,6.5h-20.5
	c-3.6,0-6.5-2.9-6.5-6.5C114.6,111.2,117.5,108.3,121.1,108.3z M106.8,174.5H77.5c-6.2,0-10.6-3.7-13.5-6.2
	c-0.5-0.4-0.9-0.7-1.3-1.1c-2.1-1.7-4.7-2.6-7.4-2.6h-3.3v-54.1c0.3,0,0.5,0,0.8,0c8.4,0.1,15.1,0.2,22.1-8.5
	c3.4-4.2,7.4-12,7.4-25.8V65.6c0-0.7,0.6-1.3,1.2-1.3c0,0,0.1,0,0.1,0c4.5,0,8.9,2,11.8,5.3c3,3.5,4.4,8.8,4.2,16.3
	c-0.1,3.3-0.2,7.5-0.7,11.3c-0.3,2.2,0.1,4.4,1,6.4c0,0,0,0,0,0c0,0,0,0,0,0.1c0,0,0,0,0,0c0.8,1.8,1.4,3.8,1.4,5.7
	c0.1,2.5-0.4,4.9-1.5,7.4c0,0.1-2.3,5.1-8.6,7.8c-1.2,0.5-1.8,2-1.2,3.2c1.9,4.2,8.8-2.1,10.5-3.9c1.4-1.5,2.8-3.3,3.7-5.2
	c1.4-3.1,2-6.3,1.9-9.6c0-0.4,0-0.7-0.1-1.1h5.7c-1.3,1.8-2.1,4.1-2.1,6.5c0,4.7,2.9,8.7,6.9,10.4c-1.7,2-2.7,4.5-2.7,7.4
	c0,2.8,1,5.4,2.7,7.4c-4.1,1.7-6.9,5.7-6.9,10.4c0,2.7,0.9,5.2,2.5,7.1c-4.4,1.5-7.6,5.7-7.6,10.7
	C104.7,170.4,105.5,172.7,106.8,174.5z M136.6,174.5l-20.5,0c-3.6,0-6.5-2.9-6.5-6.5c0-3.6,2.9-6.5,6.5-6.5h20.5
	c3.6,0,6.5,2.9,6.5,6.5C143,171.6,140.1,174.5,136.6,174.5L136.6,174.5z M141.6,156.7h-20.5c-3.6,0-6.5-2.9-6.5-6.5
	c0-3.6,2.9-6.5,6.5-6.5h20.5c3.6,0,6.5,2.9,6.5,6.5C148.1,153.8,145.2,156.7,141.6,156.7L141.6,156.7z M145.8,139h-20.5
	c-3.6,0-6.5-2.9-6.5-6.5c0-3.6,2.9-6.5,6.5-6.5h20.5c3.6,0,6.5,2.9,6.5,6.5C152.3,136.1,149.4,139,145.8,139z"/>
</svg>
