<?xml version="1.0" encoding="utf-8"?>
<!-- Generator: Adobe Illustrator 24.0.0, SVG Export Plug-In . SVG Version: 6.00 Build 0)  -->
<svg version="1.1" id="Слой_1" xmlns="http://www.w3.org/2000/svg" xmlns:xlink="http://www.w3.org/1999/xlink" x="0px" y="0px"
	 viewBox="0 0 431.14 198" style="enable-background:new 0 0 431.14 198;" xml:space="preserve">
<path style="opacity:0.2;fill:#E7F3FE;" d="M68.44,16.29c42.58-15.81,85.87-1.83,115.22,28.61c29.35,30.44,90.96-21.01,123.63,9.38
	c22.3,20.74,12.08,74.07-18.49,97.17c-41.56,31.39-167.93,15.46-195.27,10.12c-31.49-6.16-54.52-24.83-63.88-47.5
	C7.11,59.46,49.62,23.28,68.44,16.29z"/>
<g>
	<g style="opacity:0.8;">
		<path style="fill:#FFFFFF;" d="M234.04,45.05h-5.21c-2.01,0-3.65-1.64-3.65-3.65v-5.21c0-2.01,1.64-3.65,3.65-3.65h5.21
			c2.01,0,3.65,1.64,3.65,3.65v5.21C237.69,43.41,236.05,45.05,234.04,45.05z M228.84,33.98c-1.22,0-2.21,0.99-2.21,2.21v5.21
			c0,1.22,0.99,2.21,2.21,2.21h5.21c1.22,0,2.21-0.99,2.21-2.21v-5.21c0-1.22-0.99-2.21-2.21-2.21H228.84z"/>
	</g>
	<g style="opacity:0.8;">
		<path style="fill:#FFFFFF;" d="M209.54,45.05h-5.21c-2.01,0-3.65-1.64-3.65-3.65v-5.21c0-2.01,1.64-3.65,3.65-3.65h5.21
			c2.01,0,3.65,1.64,3.65,3.65v5.21C213.19,43.41,211.55,45.05,209.54,45.05z M204.33,33.98c-1.22,0-2.21,0.99-2.21,2.21v5.21
			c0,1.22,0.99,2.21,2.21,2.21h5.21c1.22,0,2.21-0.99,2.21-2.21v-5.21c0-1.22-0.99-2.21-2.21-2.21H204.33z"/>
	</g>
	<g>
		<path style="fill:#FFFFFF;" d="M207.26,42.02c-0.01,0-0.02,0-0.03,0c-0.18-0.01-0.35-0.1-0.46-0.24l-3.74-4.88
			c-0.21-0.27-0.16-0.66,0.11-0.86c0.27-0.21,0.66-0.16,0.86,0.11l3.3,4.3l8.62-9.23c0.23-0.25,0.62-0.26,0.87-0.03
			c0.25,0.23,0.26,0.62,0.03,0.87l-9.11,9.76C207.6,41.94,207.43,42.02,207.26,42.02z"/>
	</g>
</g>
<path style="opacity:0.5;fill:#CCE2FF;" d="M308.14,163.93c-21.32-1.04-93.83,0.72-115.89,1.41c-22.05,0.69-47.65-0.91-60.95-3.26
	c-13.3-2.35-90.16,0.2-86.68,6.51c3.49,6.31,34.25,2.82,69.13,5.36c34.88,2.54,113.33-0.32,131.03,0c17.7,0.32,33.92-0.63,56.73-1.9
	C324.32,170.79,320.5,164.54,308.14,163.93z"/>
<rect x="46.11" y="31.95" style="fill:#99BBEB;" width="44.56" height="73.04"/>
<rect x="48.03" y="33.44" style="fill:#FFFFFF;" width="40.76" height="68.76"/>
<path style="fill:#99BBEB;" d="M73.71,73.83H63.25c-0.67,0-1.22-0.55-1.22-1.22c0-0.67,0.55-1.22,1.22-1.22h10.46
	c0.67,0,1.22,0.55,1.22,1.22C74.92,73.29,74.38,73.83,73.71,73.83z"/>
<path style="fill:#99BBEB;" d="M75.62,77.57H61.34c-0.67,0-1.22-0.55-1.22-1.22c0-0.67,0.55-1.22,1.22-1.22h14.29
	c0.67,0,1.22,0.55,1.22,1.22C76.84,77.02,76.29,77.57,75.62,77.57z"/>
<path style="fill:#99BBEB;" d="M85.86,87.14H51.1c-0.39,0-0.71-0.32-0.71-0.71s0.32-0.71,0.71-0.71h34.75
	c0.39,0,0.71,0.32,0.71,0.71S86.24,87.14,85.86,87.14z"/>
<path style="fill:#99BBEB;" d="M85.86,90.42H51.1c-0.39,0-0.71-0.32-0.71-0.71c0-0.39,0.32-0.71,0.71-0.71h34.75
	c0.39,0,0.71,0.32,0.71,0.71C86.56,90.1,86.24,90.42,85.86,90.42z"/>
<path style="fill:#99BBEB;" d="M85.86,93.7H51.1c-0.39,0-0.71-0.32-0.71-0.71s0.32-0.71,0.71-0.71h34.75c0.39,0,0.71,0.32,0.71,0.71
	S86.24,93.7,85.86,93.7z"/>
<rect x="145.49" y="31.95" style="fill:#99BBEB;" width="44.56" height="73.04"/>
<rect x="147.38" y="33.44" style="fill:#FFFFFF;" width="40.76" height="68.76"/>
<g>
	<path style="fill:#FFFFFF;" d="M168.12,52.61c-0.86,0-1.56-0.9-1.56-0.9"/>
</g>
<path style="fill:#99BBEB;" d="M173.05,73.83h-10.46c-0.67,0-1.22-0.55-1.22-1.22c0-0.67,0.55-1.22,1.22-1.22h10.46
	c0.67,0,1.22,0.55,1.22,1.22C174.27,73.29,173.72,73.83,173.05,73.83z"/>
<path style="fill:#99BBEB;" d="M174.96,77.57h-14.29c-0.67,0-1.22-0.55-1.22-1.22c0-0.67,0.55-1.22,1.22-1.22h14.29
	c0.67,0,1.22,0.55,1.22,1.22C176.18,77.02,175.63,77.57,174.96,77.57z"/>
<path style="fill:#99BBEB;" d="M185.2,87.14h-34.75c-0.39,0-0.71-0.32-0.71-0.71s0.32-0.71,0.71-0.71h34.75
	c0.39,0,0.71,0.32,0.71,0.71S185.59,87.14,185.2,87.14z"/>
<path style="fill:#99BBEB;" d="M185.2,90.42h-34.75c-0.39,0-0.71-0.32-0.71-0.71c0-0.39,0.32-0.71,0.71-0.71h34.75
	c0.39,0,0.71,0.32,0.71,0.71C185.9,90.1,185.59,90.42,185.2,90.42z"/>
<path style="fill:#99BBEB;" d="M185.2,93.7h-34.75c-0.39,0-0.71-0.32-0.71-0.71s0.32-0.71,0.71-0.71h34.75
	c0.39,0,0.71,0.32,0.71,0.71S185.59,93.7,185.2,93.7z"/>
<polygon style="opacity:0.2;fill:#99BBEB;" points="150.05,104.26 79.73,104.26 84.7,32.22 152.59,32.22 "/>
<rect x="87.31" y="18.59" style="fill:#99BBEB;" width="60.86" height="99.76"/>
<rect x="90.3" y="20.62" style="fill:#FFFFFF;" width="55.67" height="93.92"/>
<path style="fill:#99BBEB;" d="M131.22,74.38h-25.98c-0.91,0-1.66-0.75-1.66-1.66c0-0.91,0.75-1.66,1.66-1.66h25.98
	c0.91,0,1.66,0.75,1.66,1.66C132.88,73.63,132.13,74.38,131.22,74.38z"/>
<path style="fill:#99BBEB;" d="M127.99,79.48h-19.51c-0.91,0-1.66-0.75-1.66-1.66c0-0.91,0.75-1.66,1.66-1.66h19.51
	c0.91,0,1.66,0.75,1.66,1.66C129.65,78.74,128.9,79.48,127.99,79.48z"/>
<path style="fill:#99BBEB;" d="M141.96,93.97H94.49c-0.53,0-0.96-0.43-0.96-0.96c0-0.53,0.43-0.96,0.96-0.96h47.47
	c0.53,0,0.96,0.43,0.96,0.96C142.93,93.54,142.49,93.97,141.96,93.97z"/>
<path style="fill:#99BBEB;" d="M141.96,98.45H94.49c-0.53,0-0.96-0.43-0.96-0.96c0-0.53,0.43-0.96,0.96-0.96h47.47
	c0.53,0,0.96,0.43,0.96,0.96C142.93,98.01,142.49,98.45,141.96,98.45z"/>
<path style="fill:#99BBEB;" d="M141.96,102.93H94.49c-0.53,0-0.96-0.43-0.96-0.96c0-0.53,0.43-0.96,0.96-0.96h47.47
	c0.53,0,0.96,0.43,0.96,0.96C142.93,102.49,142.49,102.93,141.96,102.93z"/>
<path style="fill:#2E5B9A;" d="M245.09,115.14h-76.83c-0.82,0-1.49-0.67-1.49-1.49l0,0c0-0.82,0.67-1.49,1.49-1.49h76.83
	c0.82,0,1.49,0.67,1.49,1.49l0,0C246.57,114.48,245.91,115.14,245.09,115.14z"/>
<g>
	<path style="fill:#F09959;" d="M265.83,72.32c1.06,3.73-1.53,7.58-4.37,8.38c-2.85,0.81-4.88-1.73-5.94-5.46
		c-1.06-3.73,0.39-7.41,3.24-8.22C261.61,66.22,264.78,68.59,265.83,72.32z"/>
	<path style="fill:#F09959;" d="M249.87,144.61c0,0,7.3,11.33,8.28,11.83c0.99,0.49,3.45,0.62,2.53,2.46
		c-0.92,1.85-1.29,9.12-2.16,9.49c-0.86,0.37-8.25,1.23-7.14,0c1.11-1.23,1.79-0.62,2.35-2.83c0.56-2.22,1.35-6.41,0.3-7.27
		c-1.05-0.86-7.45-8.62-7.45-8.62L249.87,144.61z"/>
	<path style="fill:#F09959;" d="M213.15,149.47c0,0-8.87,14.62-10.51,15.93c-1.64,1.31-7.06,3.29-2.63,3.61
		c4.43,0.33,6.57-1.48,9.36-2.3c2.79-0.82,6.24-1.31,4.93-3.45c-1.31-2.14-0.77-6.8,2.06-9.75
		C219.19,150.56,213.15,149.47,213.15,149.47z"/>
	<path style="fill:#0469B7;" d="M258.41,115.58c0,0-21.96-0.57-30.66,6.57c-5.09,7.72-17.41,30.5-18.37,33.01
		c0.66,0.66,4.35,1.84,6,1.68c4.85-5.78,11.25-10.77,13.8-15.3c3.14-5.58,4.11-8.38,9.2-8.87c5.09-0.49,16.59-2.14,20.04-2.14
		C261.86,130.52,258.41,115.58,258.41,115.58z"/>
	<polygon style="fill:#2E5B9A;" points="277.56,169.06 276.41,169.06 268.15,134.63 270.69,134.63 	"/>
	<polygon style="fill:#2E5B9A;" points="243.08,169.06 244.23,169.06 253.7,133.41 251.17,133.41 	"/>
	<path style="fill:#0A77C1;" d="M270.92,114.07l-12.77,2.2c0,0-16.96,0.16-24.72,1.6c-7.05,1.31-8.09,9.33,0,20.37
		c4.6,6.27,8.49,11.27,16.44,16.91c2.02-1.48,2.8-2.05,3.35-5.62c-0.58-0.79-2.06-5.73-2.53-6.69c-4.4-9.19-10.27-12.53-10.35-13.44
		c0.99-1.6,26.1,8.35,31.1,2.5C276.22,126.31,270.92,114.07,270.92,114.07z"/>
	<path style="fill:#76B330;" d="M271.45,85.17c-3.36-0.47-6.79,0.17-9.99,2.49c-2.8,2.85-5.96,7.56-5.77,15.32
		c0.25,9.85-1.52,10.49,0.32,13.2c7.71,3.18,20.89,16.86,17.78,2.2c-2.25-10.61,4.93-18.53-0.86-30.3
		C272.46,87.11,271.88,86.18,271.45,85.17z"/>
	<path style="fill:#91C152;" d="M255.69,106.68c-0.15,5.14-0.88,6.65-0.32,8.26c3.14,0.32,8.89,1.58,10.32,3.59
		c1.64,2.3,3.29,2.63,2.52,0.93c-0.77-1.7-2.79-4.11,0.33-12.37c3.12-8.27,4.6-13.85,1.53-19.6L255.69,106.68z"/>
	<path style="fill:#F09959;" d="M271.45,85.17c-2.07-4.9-2.58-10.41-2.58-10.41l-5.42,1.6c0,0,3.08,6.9,0.12,9.36
		c-0.63,0.52-1.36,1.16-2.11,1.93C264.66,85.34,268.09,84.7,271.45,85.17z"/>
	<path style="fill:#E38540;" d="M269.03,76.07c-0.32-0.29-0.72-0.64-1.14-1.02l-4.42,1.31c0,0.01-0.01,0.02-0.01,0.02
		c0.11,0.24,1.23,2.87,1.38,5.4c1.32-0.8,2.76-2.1,4.41-4.38C269.16,76.9,269.09,76.45,269.03,76.07z"/>
	<path style="fill:#F09959;" d="M267.64,86.71c-5.58,1.95-4.96,7.83-10.1,16.51c-2.66,4.49-5.13,4.42-5.13,4.42
		s-6.24,0.05-13.78-0.87c-4.72-0.58-5.02,0.83-1.74,2c6.62,2.37,13.5,4.92,19.04,4.3c5.54-0.62,15.02-14.76,15.51-18.44
		C272.13,89.54,270.45,85.73,267.64,86.71z"/>
	<g>
		<path style="fill:#2E5B9A;" d="M264.76,136.06c-0.35,0-0.7,0-1.07-0.01c-4.55-0.11-7.65-0.74-10.14-1.25
			c-2.91-0.59-4.51-0.92-6.37-0.03c-0.72,0.34-1.57,0.04-1.91-0.68c-0.34-0.72-0.04-1.57,0.68-1.91c2.73-1.3,5.02-0.84,8.18-0.2
			c2.38,0.48,5.34,1.08,9.63,1.19c4.81,0.12,7.74-0.59,9.23-2.24c1.32-1.47,1.71-3.94,1.22-7.76c-0.17-1.31-0.34-2.4-0.49-3.36
			c-0.42-2.71-0.7-4.5-0.35-7.28c0.32-2.57,1.17-6,3.14-12.64c0.23-0.76,1.02-1.19,1.78-0.97c0.76,0.23,1.19,1.02,0.97,1.78
			c-3.68,12.38-3.49,13.59-2.71,18.67c0.15,0.98,0.32,2.09,0.5,3.43c0.61,4.72-0.01,7.92-1.93,10.05
			C273.14,135.06,269.92,136.06,264.76,136.06z"/>
	</g>
	<path style="fill:#D54A41;" d="M213.75,161.79c-5.89,2.88-9.05,4.53-10.94,4.37c-0.45-0.04-0.81-0.08-1.12-0.13
		c-2.1,1.24-5.45,2.71-1.68,2.99c4.43,0.33,6.57-1.48,9.36-2.3c2.79-0.82,6.24-1.31,4.93-3.45
		C214.05,162.86,213.86,162.36,213.75,161.79z"/>
	<path style="fill:#D54A41;" d="M258.8,156.67c-0.14,4.66-0.78,9.28-3.63,10.15c-0.76,0.23-1.44,0.26-2.05,0.18
		c-0.45,0.55-1,0.56-1.73,1.38c-1.11,1.23,6.28,0.37,7.14,0s1.23-7.64,2.16-9.49C261.44,157.38,259.91,157.02,258.8,156.67z"/>
	<g>
		<path style="fill:#75A1DE;" d="M236.13,112.58h-18.7c-0.56,0-1.07-0.32-1.3-0.83l-7.56-16.26c-0.33-0.72-0.02-1.57,0.7-1.91
			c0.72-0.33,1.57-0.02,1.91,0.7l7.17,15.43h17.78c0.79,0,1.43,0.64,1.43,1.43C237.56,111.93,236.92,112.58,236.13,112.58z"/>
	</g>
	<path style="fill:#F09959;" d="M240.04,106.93c-3.78-0.05-7.52-2.31-9.39-1.98c-1.86,0.33-7.94,4.54-7.17,4.71
		c0.77,0.16,5.58-2.33,5.75-2.37c0.16-0.04,1.2,1.73,3.78,2.38c2.57,0.65,0.02-1.93,7.99,0.48
		C246.19,111.72,240.04,106.93,240.04,106.93z"/>
	<path style="fill:#F2E5DE;" d="M270.89,80.7l0.56,4.47c0,0-4.89,0.29-7.32,1.66c-2.43,1.37-6.02,5.32-6.02,5.32l2.93-5.05
		l0.42-3.23L270.89,80.7z"/>
	<path style="fill:#F2E5DE;" d="M268.81,86.17c-3.63-0.68-5.31,2.57-7.67,7.88c-2.35,5.31-6.37,11.76-7.17,12.59
		c-0.8,0.83-13.47,0-13.47,0s-0.38,3.67,0,4.11c0.38,0.44,2.57,0.38,2.57,0.38s0.88,0.7,1.7,1.25c0.82,0.55,7.77,1.59,11.01,1.43
		c3.23-0.16,6.19-0.44,6.62-0.93c0.44-0.49,9.25-14.07,9.8-18.94C272.76,89.08,270.67,86.52,268.81,86.17z"/>
	<path style="fill:#303C60;" d="M258.11,63.84c-6.87,0.33-5.79,10.66-5.79,10.66s1.78,0.55,5.52-0.07
		c-0.29-1.11-0.16-3.94-0.16-3.94s0.43,2.3,0.99,3.7c0.79,0.36,1.68,0.04,3.2-0.33c0.78,3.28,2.98,4.67,4.49,5.14
		c1.67,0.52,3.43,1.15,5.4,0.16c1.97-0.99,0.89-11.06-0.16-13.09c-1.57-3.04-4.18-5.76-8.7-4.33
		C260.63,62.48,258.11,63.84,258.11,63.84z"/>
	<path style="fill:#303C60;" d="M270.05,76.1l2.81,4.1c0,0-3.11,7.77,5.94,11.3c7.09,2.76,6.25,7.62,3.05,12.51
		c-3.2,4.89,1.92,9.16,1.92,9.16s0.78-5.41,7.67-6.44c9.39-1.39,12.05-14,5.04-20.3c-5.8-5.22-7.57-0.9-11.5-5.58
		c-3.93-4.68-11.34-1.52-11.34-1.52l-2.72-3.96L270.05,76.1z"/>
	<g>
		<path style="fill:#303C60;" d="M299.69,99.13c-0.04,0-0.08-0.01-0.12-0.03c-0.12-0.07-0.17-0.22-0.1-0.34
			c2.36-4.31,0.43-9.54-0.53-10.96c-0.1-0.15-0.2-0.3-0.3-0.46c-0.95-1.49-2.14-3.34-8.46-4.47c-1.52-0.27-2.76-1.18-4.06-2.14
			c-2.7-1.98-5.75-4.22-12.39-1.17c-0.13,0.06-0.27,0-0.33-0.12c-0.06-0.13,0-0.27,0.12-0.33c6.91-3.18,10.09-0.84,12.9,1.22
			c1.26,0.92,2.44,1.79,3.85,2.05c6.54,1.18,7.79,3.13,8.79,4.7c0.1,0.16,0.2,0.31,0.29,0.45c1.02,1.48,3.03,6.96,0.56,11.48
			C299.87,99.08,299.78,99.13,299.69,99.13z"/>
	</g>
	<g>
		<path style="fill:#303C60;" d="M268.55,80.31c-0.45,0-0.94-0.04-1.46-0.12c-2.4-0.36-5.63-1.73-5.88-9.39
			c0-0.14,0.1-0.25,0.24-0.26c0.14,0,0.25,0.1,0.26,0.24c0.1,3.16,0.73,5.5,1.86,6.95c0.86,1.1,2,1.73,3.59,1.97
			c2.22,0.33,3.7-0.08,4.38-1.22c0.07-0.12,0.22-0.16,0.34-0.09c0.12,0.07,0.16,0.22,0.09,0.34
			C271.35,79.78,270.2,80.31,268.55,80.31z"/>
	</g>
</g>
<polygon style="fill:#2E5B9A;" points="175.15,169.06 176.99,169.06 184.17,114.19 180.11,114.19 "/>
<polygon style="fill:#2E5B9A;" points="237.76,169.06 235.91,169.06 228.74,114.19 232.79,114.19 "/>
<g>
	<path style="fill:#74B570;" d="M308.11,121.79c3.19,2.91,1.8,5.83-0.56,11.24c-2.36,5.41-2.78,25.4-2.78,25.4l1.94-0.28
		c0,0-0.28-20.54,2.36-26.09c2.64-5.55,3.75-8.33,6.11-6.52S308.11,121.79,308.11,121.79z"/>
	<path style="fill:#9CD499;" d="M306.36,118.02c0.39-1.73,2.69-3.6,5.77-5.18c-0.46,2.55-1.93,6.71-0.41,7.57
		c2.05,1.15,0.2-4.66,0.99-7.86c2.89-1.41,6.37-2.57,9.57-3.14c0,0.01-0.01,0.02-0.01,0.04c-1.8,4.58-4.16,6.38-3.19,7.08
		c0.73,0.52,3.11-4.77,6.26-7.48c2.36-0.13,4.36,0.19,5.54,1.13c1.83,1.45,3.05,2.73,1.21,7.13c-1.05,0.75-2.41,1.29-3.99,1.44
		c-4.16,0.42-6.11,0.56-3.19,1.94c1.43,0.68,3.82-0.04,5.76-0.48c-0.63,1.16-1.4,2.47-2.34,3.97c-0.6,0.95-1.25,1.77-1.95,2.48
		c-1.34,0.26-2.51,0.26-3.13-0.01c-1.94-0.83-6.94-3.47-8.19-2.36c-1.22,1.09,9.25,1.78,8.53,4.54c-5.08,2.93-10.89,1.53-11.92-1.15
		C310.29,124.07,305.19,123.22,306.36,118.02z"/>
	<path style="fill:#74B570;" d="M316.86,137.75c-5.55-4.16-11.24-0.28-14.16,4.16c-2.91,4.44-0.83,14.43-0.83,14.43
		s1.11,0,1.11-0.42c0-0.42-3.05-11.8,4.16-16.93c4.52-3.21,7.77-1.67,8.19-0.14c0.42,1.53-1.8,4.3-1.8,4.3L316.86,137.75z"/>
	<path style="fill:#9CD499;" d="M304.09,129.19c5.55,0,7.36,8.61,5.83,13.6c-1.53,5-3.61,14.3-3.61,14.3l-1.39-1.39
		c0,0,5.27-13.05,4.03-18.88c-1.25-5.83-4.3-6.8-4.86-6.8C303.53,130.03,304.09,129.19,304.09,129.19z"/>
	<path style="fill:#74B570;" d="M308.74,142.83c0.39-0.52,0.87-0.94,1.46-1.23c-0.08,0.41-0.17,0.81-0.29,1.19
		c-0.7,2.28-1.51,5.45-2.18,8.22c-0.06-0.36-0.16-0.9-0.3-1.75c-0.03-0.2-0.06-0.42-0.08-0.65
		C307.89,146.77,308.41,144.76,308.74,142.83z"/>
	<path style="fill:#9CD499;" d="M310.26,142.88c10.55-4.44,4.99-10.54,14.29-6.51c0.65,0.28,1.45,1,2.25,1.98
		c-0.83,0.23-1.83,0.4-2.95,0.24c-2.78-0.42-1.8,1.8,2.78,2.36c0.86,0.1,1.56,0.25,2.15,0.45c2.18,4.19,3.17,9.71-1.45,11.62
		c-0.91,0.38-2.03,0.59-3.29,0.67c-1.42-1.13,0.35-7.69-1.85-6.78c-2.11,0.87,0.66,5.62,0.28,6.81c-2.08-0.04-4.39-0.38-6.59-0.92
		c-0.87-0.49-1.54-1.14-1.74-2c-0.69-2.91,3.89-4.72,4.03-7.22c0.13-2.3-1.68,5.05-6.46,6.13
		C307.38,147.7,305.33,144.95,310.26,142.88z"/>
	<path style="fill:#9CD499;" d="M302.75,135.02c1.11-2.36-1.8-2.91-1.67-1.11c0.12,1.6,0.14,5.49-1.5,6.54
		c-2.83-0.31-6.68-1.45-9.58-3.18c-0.04-0.23,0-0.48,0.12-0.72c1.25-2.5,9.3-4.58,6.8-5.41c-1.99-0.66-5.48,3.25-8.29,5.22
		c-1.69-1.28-2.82-2.81-2.82-4.51c0-2.31,2.8-4.92,6.42-6.16c1.63,0.16,3.15,1.06,5.51,2.4c3.5,1.98,2.69-1.22-0.62-3.12
		c2.85,0.15,5.7,1.37,7.79,4.28c0,0-0.2,1.24,1.12,3.17c3.59,5.25-0.55,8.32-5.51,8.12C300.81,139.15,301.98,136.65,302.75,135.02z"
		/>
	<path style="fill:#74B570;" d="M316.52,137.52c2.71,2.1,5.73,4.55,9.43,6.22c3.7,1.67,2.96,7.09,2.96,7.09s0.56-4.69-2.53-6.29
		c-3.08-1.6-5.12-3.52-7.46-3.89c-2.34-0.37-3.64-0.74-3.64-0.74s0.74-1.48,0.31-2.04C315.16,137.32,316.52,137.52,316.52,137.52z"
		/>
	<path style="fill:#74B570;" d="M329.9,112.89c-9.93,2.65-17.21,9.01-18.57,10.55c-1.36,1.54-1.36,1.97-1.36,1.97l1.05,1.97
		l0.49-0.25c0,0-0.8-1.67,1.3-3.82c3.62-3.72,8.02-6.66,11.04-7.96C326.88,114.06,329.9,112.89,329.9,112.89z"/>
	<path style="fill:#75A1DE;" d="M304.38,167.86L304.38,167.86c3.75,0,6.78-3.04,6.78-6.78v-6.82H297.6v6.82
		C297.6,164.83,300.64,167.86,304.38,167.86z"/>
	<rect x="297.6" y="155.82" style="fill:#FFFFFF;" width="13.57" height="0.96"/>
	<rect x="297.6" y="157.56" style="fill:#FFFFFF;" width="13.57" height="0.56"/>
</g>
<g>
	<path style="fill:#FFFFFF;" d="M79.2,132.72h0.57c1.42,0,2.57-1.15,2.57-2.57l0,0c0-1.42-1.15-2.57-2.57-2.57H79.2
		c-1.42,0-2.57,1.15-2.57,2.57l0,0C76.63,131.57,77.78,132.72,79.2,132.72z"/>
	<path style="fill:#FFFFFF;" d="M68.82,132.72h0.57c1.42,0,2.57-1.15,2.57-2.57v0c0-1.42-1.15-2.57-2.57-2.57h-0.57
		c-1.42,0-2.57,1.15-2.57,2.57l0,0C66.25,131.57,67.4,132.72,68.82,132.72z"/>
	<path style="fill:#FFFFFF;" d="M58.43,132.72H59c1.42,0,2.57-1.15,2.57-2.57v0c0-1.42-1.15-2.57-2.57-2.57h-0.57
		c-1.42,0-2.57,1.15-2.57,2.57l0,0C55.86,131.57,57.01,132.72,58.43,132.72z"/>
</g>
<g>
	<path style="fill:#FFFFFF;" d="M331.82,59.81v-0.57c0-1.42-1.15-2.57-2.57-2.57h0c-1.42,0-2.57,1.15-2.57,2.57v0.57
		c0,1.42,1.15,2.57,2.57,2.57h0C330.67,62.38,331.82,61.23,331.82,59.81z"/>
	<path style="fill:#FFFFFF;" d="M331.82,70.2v-0.57c0-1.42-1.15-2.57-2.57-2.57l0,0c-1.42,0-2.57,1.15-2.57,2.57v0.57
		c0,1.42,1.15,2.57,2.57,2.57h0C330.67,72.77,331.82,71.62,331.82,70.2z"/>
	<path style="fill:#FFFFFF;" d="M331.82,80.58v-0.57c0-1.42-1.15-2.57-2.57-2.57l0,0c-1.42,0-2.57,1.15-2.57,2.57v0.57
		c0,1.42,1.15,2.57,2.57,2.57h0C330.67,83.15,331.82,82,331.82,80.58z"/>
</g>
<g>
	<g>
		<path style="fill:#99BBEB;" d="M134.84,59.26h-34.19c-0.85,0-1.53-0.69-1.53-1.53V26.21c0-0.85,0.69-1.53,1.53-1.53h34.19
			c0.85,0,1.53,0.69,1.53,1.53v31.51C136.37,58.57,135.68,59.26,134.84,59.26z M100.65,25.7c-0.28,0-0.51,0.23-0.51,0.51v31.51
			c0,0.28,0.23,0.51,0.51,0.51h34.19c0.28,0,0.51-0.23,0.51-0.51V26.21c0-0.28-0.23-0.51-0.51-0.51H100.65z"/>
	</g>
	<g>
		<g>
			<path style="fill:#99BBEB;" d="M124.77,32.52h-14.06c-1.33,0-2.41,1.08-2.41,2.41V49c0,1.33,1.08,2.41,2.41,2.41h14.06
				c1.33,0,2.41-1.08,2.41-2.41V34.94C127.19,33.61,126.1,32.52,124.77,32.52z M126.07,49c0,0.72-0.58,1.3-1.3,1.3h-14.06
				c-0.72,0-1.3-0.58-1.3-1.3v-2.03l3.66-3.11c0.13-0.11,0.33-0.11,0.46,0l2.29,1.9c0.22,0.18,0.55,0.17,0.75-0.03l5.45-5.46
				c0.1-0.1,0.21-0.11,0.27-0.11c0.06,0,0.17,0.02,0.26,0.13l3.51,4.32L126.07,49L126.07,49z M126.07,42.85l-2.65-3.26
				c-0.26-0.32-0.65-0.52-1.07-0.54c-0.42-0.02-0.82,0.14-1.12,0.43l-5.09,5.1l-1.9-1.58c-0.55-0.46-1.35-0.45-1.89,0.01l-2.94,2.5
				V34.94c0-0.72,0.58-1.3,1.3-1.3h14.06c0.72,0,1.3,0.58,1.3,1.3V42.85z"/>
		</g>
	</g>
</g>
<g>
	<g>
		<path style="fill:#99BBEB;" d="M180.29,62.34h-25.03c-0.69,0-1.26-0.57-1.26-1.26V38.01c0-0.69,0.57-1.26,1.26-1.26h25.03
			c0.69,0,1.26,0.57,1.26,1.26v23.07C181.55,61.78,180.98,62.34,180.29,62.34z M155.26,37.78c-0.13,0-0.23,0.11-0.23,0.23v23.07
			c0,0.13,0.11,0.23,0.23,0.23h25.03c0.13,0,0.23-0.11,0.23-0.23V38.01c0-0.13-0.11-0.23-0.23-0.23H155.26z"/>
	</g>
	<g>
		<g>
			<path style="fill:#99BBEB;" d="M173.01,42.52h-10.47c-0.99,0-1.8,0.81-1.8,1.8v10.47c0,0.99,0.81,1.8,1.8,1.8h10.47
				c0.99,0,1.8-0.81,1.8-1.8V44.31C174.8,43.32,174,42.52,173.01,42.52z M173.97,54.78c0,0.53-0.43,0.97-0.97,0.97h-10.47
				c-0.53,0-0.97-0.43-0.97-0.97v-1.51l2.73-2.32c0.1-0.08,0.24-0.09,0.34,0l1.71,1.42c0.16,0.14,0.41,0.13,0.56-0.03l4.06-4.06
				c0.07-0.07,0.16-0.08,0.2-0.08c0.04,0,0.13,0.02,0.19,0.1l2.61,3.22L173.97,54.78L173.97,54.78z M173.97,50.2L172,47.78
				c-0.2-0.24-0.49-0.39-0.79-0.4c-0.31-0.02-0.61,0.1-0.83,0.32l-3.79,3.8l-1.42-1.18c-0.41-0.34-1-0.34-1.41,0.01l-2.19,1.86
				v-7.87c0-0.53,0.43-0.97,0.97-0.97h10.47c0.53,0,0.97,0.43,0.97,0.97V50.2z"/>
		</g>
	</g>
</g>
<g>
	<g>
		<path style="fill:#99BBEB;" d="M80.9,62.46H55.87c-0.69,0-1.26-0.57-1.26-1.26V38.13c0-0.69,0.57-1.26,1.26-1.26H80.9
			c0.69,0,1.26,0.57,1.26,1.26V61.2C82.16,61.89,81.6,62.46,80.9,62.46z M55.87,37.89c-0.13,0-0.23,0.11-0.23,0.23V61.2
			c0,0.13,0.11,0.23,0.23,0.23H80.9c0.13,0,0.23-0.11,0.23-0.23V38.13c0-0.13-0.11-0.23-0.23-0.23H55.87z"/>
	</g>
	<g>
		<g>
			<path style="fill:#99BBEB;" d="M73.62,42.63H63.15c-0.99,0-1.8,0.81-1.8,1.8V54.9c0,0.99,0.81,1.8,1.8,1.8h10.47
				c0.99,0,1.8-0.81,1.8-1.8V44.43C75.41,43.44,74.61,42.63,73.62,42.63z M74.59,54.9c0,0.53-0.43,0.97-0.97,0.97H63.15
				c-0.53,0-0.97-0.43-0.97-0.97v-1.51l2.73-2.32c0.1-0.08,0.24-0.09,0.34,0l1.71,1.42c0.16,0.14,0.41,0.13,0.56-0.03l4.06-4.06
				c0.07-0.07,0.16-0.08,0.2-0.08c0.04,0,0.13,0.02,0.19,0.1l2.61,3.22L74.59,54.9L74.59,54.9z M74.59,50.32l-1.97-2.43
				c-0.2-0.24-0.49-0.39-0.79-0.4c-0.31-0.02-0.61,0.1-0.83,0.32l-3.79,3.8l-1.42-1.18c-0.41-0.34-1-0.34-1.41,0.01l-2.19,1.86
				v-7.87c0-0.53,0.43-0.97,0.97-0.97h10.47c0.53,0,0.97,0.43,0.97,0.97V50.32z"/>
		</g>
	</g>
</g>
<g>
	<g>
		<path style="fill:#99BBEB;" d="M114.15,34.9c-1.48,0-2.68,1.2-2.68,2.68c0,1.48,1.2,2.68,2.68,2.68c1.48,0,2.68-1.2,2.68-2.68
			C116.84,36.1,115.63,34.9,114.15,34.9z M114.15,39.15c-0.87,0-1.57-0.7-1.57-1.57c0-0.87,0.7-1.57,1.57-1.57s1.57,0.7,1.57,1.57
			C115.72,38.44,115.02,39.15,114.15,39.15z"/>
	</g>
</g>
</svg>
